<?xml version="1.0" encoding="UTF-8" standalone="no"?>
<!-- Created with Inkscape (http://www.inkscape.org/) -->

<svg
   xmlns:dc="http://purl.org/dc/elements/1.1/"
   xmlns:cc="http://creativecommons.org/ns#"
   xmlns:rdf="http://www.w3.org/1999/02/22-rdf-syntax-ns#"
   xmlns:svg="http://www.w3.org/2000/svg"
   xmlns="http://www.w3.org/2000/svg"
   xmlns:sodipodi="http://sodipodi.sourceforge.net/DTD/sodipodi-0.dtd"
   xmlns:inkscape="http://www.inkscape.org/namespaces/inkscape"
   width="210mm"
   height="297mm"
   viewBox="0 0 744.09448819 1052.3622047"
   id="svg2"
   version="1.1"
   inkscape:version="0.91 r13725"
   sodipodi:docname="drawing-2.svg"
   inkscape:export-filename="D:\Dev\sourcetom\app\components\dumb\imgs\Tom.png"
   inkscape:export-xdpi="24.190001"
   inkscape:export-ydpi="24.190001">
  <defs
     id="defs4" />
  <sodipodi:namedview
     id="base"
     pagecolor="#ffffff"
     bordercolor="#666666"
     borderopacity="1.0"
     inkscape:pageopacity="0.0"
     inkscape:pageshadow="2"
     inkscape:zoom="1.979899"
     inkscape:cx="276.3385"
     inkscape:cy="599.36891"
     inkscape:document-units="px"
     inkscape:current-layer="layer1"
     showgrid="false"
     inkscape:window-width="1920"
     inkscape:window-height="1017"
     inkscape:window-x="-6"
     inkscape:window-y="-6"
     inkscape:window-maximized="1" />
  <metadata
     id="metadata7">
    <rdf:RDF>
      <cc:Work
         rdf:about="">
        <dc:format>image/svg+xml</dc:format>
        <dc:type
           rdf:resource="http://purl.org/dc/dcmitype/StillImage" />
        <dc:title />
      </cc:Work>
    </rdf:RDF>
  </metadata>
  <g
     inkscape:label="Layer 1"
     inkscape:groupmode="layer"
     id="layer1">
    <path
       style="fill:#5a2e00;fill-opacity:1;fill-rule:evenodd;stroke:none;stroke-width:1px;stroke-linecap:butt;stroke-linejoin:miter;stroke-opacity:1"
       d="m 278.57143,379.50506 0,-21.42857 -91.42857,0 15.71428,20 z"
       id="path4155"
       inkscape:connector-curvature="0"
       sodipodi:nodetypes="ccccc"
       inkscape:export-xdpi="52.499935"
       inkscape:export-ydpi="52.499935" />
    <path
       style="fill:#f3dcba;fill-opacity:0.99607843;fill-rule:evenodd;stroke:none;stroke-width:1px;stroke-linecap:butt;stroke-linejoin:miter;stroke-opacity:1"
       d="M 189.28571,448.07649 175.71429,432.3622 172.14286,450.21935 180,503.07649 190.71429,488.79078 Z"
       id="path4159"
       inkscape:connector-curvature="0"
       sodipodi:nodetypes="cccccc"
       inkscape:export-xdpi="52.499935"
       inkscape:export-ydpi="52.499935" />
    <ellipse
       style="fill:#000000;fill-opacity:0.99607843;stroke:none;stroke-width:1;stroke-linecap:round;stroke-linejoin:round;stroke-miterlimit:4;stroke-dasharray:1, 3;stroke-dashoffset:0;stroke-opacity:1"
       id="path4174"
       cx="239.64285"
       cy="446.29077"
       rx="4.6428571"
       ry="5.3571429"
       inkscape:export-xdpi="52.499935"
       inkscape:export-ydpi="52.499935" />
    <path
       inkscape:connector-curvature="0"
       id="path4209"
       d="m 204.28516,381.64844 -12.14258,37.14258 4.28515,105.71484 82.85743,50.71289 82.85742,-50.71289 4.28515,-105.71484 -12.14257,-37.14258 -75,2.14258 -75,-2.14258 z"
       style="fill:#f3dcba;fill-opacity:0.99607843;fill-rule:evenodd;stroke:none;stroke-width:1px;stroke-linecap:butt;stroke-linejoin:miter;stroke-opacity:1"
       inkscape:export-xdpi="52.499935"
       inkscape:export-ydpi="52.499935" />
    <path
       inkscape:connector-curvature="0"
       id="path4213"
       d="m 200.57143,382.76587 -16.42857,48.7236 0.71428,-72.69869 z"
       style="fill:#5a2e00;fill-opacity:1;fill-rule:evenodd;stroke:none;stroke-width:1px;stroke-linecap:butt;stroke-linejoin:miter;stroke-opacity:1"
       inkscape:export-xdpi="52.499935"
       inkscape:export-ydpi="52.499935" />
    <ellipse
       ry="5.3571429"
       rx="4.6428571"
       cy="454.29077"
       cx="239.64285"
       id="ellipse4219"
       style="opacity:0.98999999;fill:#000000;fill-opacity:0.99607843;stroke:none;stroke-width:1;stroke-linecap:round;stroke-linejoin:round;stroke-miterlimit:4;stroke-dasharray:1, 3;stroke-dashoffset:0;stroke-opacity:1"
       inkscape:export-xdpi="52.499935"
       inkscape:export-ydpi="52.499935" />
    <path
       inkscape:connector-curvature="0"
       style="opacity:0.98999999;fill:#000000;fill-opacity:1;fill-rule:evenodd;stroke:none;stroke-width:1px;stroke-linecap:butt;stroke-linejoin:miter;stroke-opacity:1"
       d="m 215,431.79102 -8.57227,8.57031 -17.57031,0 1.42774,5.71484 15.42968,0 0,17.85742 7.14258,7.85743 52.85742,0 7.14258,-5.71485 0.71485,-16.42773 6.42773,0 0.57227,0 4.42773,0 0.71484,16.42773 7.14258,5.71485 52.85742,0 7.14258,-7.85743 0,-17.85742 15.42969,0 1.42773,-5.71484 -17.57031,0 -8.57226,-8.57031 -47.85743,0 L 285,442.50586 l -4.76172,0.67969 -6.66601,-0.67969 -10.71485,-10.71484 -47.85742,0 z m 2.85742,5 44.28516,0 5.71484,4.28515 0,22.85742 -7.14258,4.28516 -44.28711,0 -5,-6.42773 0,-20.71485 6.42969,-4.28515 z m 78.57227,0 44.28515,0 6.42969,4.28515 0,20.71485 -5,6.42773 -44.28711,0 -7.14258,-4.28516 0,-22.85742 5.71485,-4.28515 z"
       id="path4266"
       inkscape:export-xdpi="52.499935"
       inkscape:export-ydpi="52.499935" />
    <g
       id="g4255"
       transform="matrix(-1,0,0,1,558.57142,0)"
       inkscape:export-xdpi="52.499935"
       inkscape:export-ydpi="52.499935">
      <g
         id="g4259">
        <path
           sodipodi:nodetypes="cccccccccccc"
           inkscape:connector-curvature="0"
           id="path4211"
           transform="matrix(-1,0,0,1,558.57142,0)"
           d="m 187.14258,358.07617 15.71484,20 77.14258,1.41992 0,0.01 0.2832,-0.006 0.28907,0.006 0,-0.0117 75.14257,-1.41797 15.71289,-20 -32.01408,-3.53553 -31.63446,-14.89976 z"
           style="fill:#5a2e00;fill-opacity:1;fill-rule:evenodd;stroke:none;stroke-width:1px;stroke-linecap:butt;stroke-linejoin:miter;stroke-opacity:1" />
      </g>
    </g>
    <path
       inkscape:connector-curvature="0"
       id="path4227"
       d="m 357.49491,382.90258 16.93365,47.03105 -0.73624,-70.17331 z"
       style="fill:#5a2e00;fill-opacity:1;fill-rule:evenodd;stroke:none;stroke-width:1px;stroke-linecap:butt;stroke-linejoin:miter;stroke-opacity:1"
       inkscape:export-xdpi="52.499935"
       inkscape:export-ydpi="52.499935" />
    <path
       sodipodi:nodetypes="cccccc"
       inkscape:connector-curvature="0"
       id="path4229"
       d="m 369.28571,448.07649 13.57142,-15.71429 3.57143,17.85715 -7.85714,52.85714 -10.71429,-14.28571 z"
       style="fill:#f3dcba;fill-opacity:0.99607843;fill-rule:evenodd;stroke:none;stroke-width:1px;stroke-linecap:butt;stroke-linejoin:miter;stroke-opacity:1"
       inkscape:export-xdpi="52.499935"
       inkscape:export-ydpi="52.499935" />
    <ellipse
       ry="5.3571429"
       rx="4.6428571"
       cy="454.29077"
       cx="-318.92856"
       id="ellipse4233"
       style="fill:#000000;fill-opacity:0.99607843;stroke:none;stroke-width:1;stroke-linecap:round;stroke-linejoin:round;stroke-miterlimit:4;stroke-dasharray:1, 3;stroke-dashoffset:0;stroke-opacity:1"
       transform="scale(-1,1)"
       inkscape:export-xdpi="52.499935"
       inkscape:export-ydpi="52.499935" />
  </g>
</svg>
